# xmcd CD database file
#
# Track frame offsets:
#	150
#	55482
#	75262
#	141647
#
# Disc length: 2734 seconds
#
# Revision: 0
# Processed by: cddbd v1.4PL0 Copyright (c) Steve Scherf et al.
# Submitted via: CDex 1.50
#
DISCID=320aac04
DTITLE=Kyoji Ohno - Music for the Mind - Vitalization
DYEAR=1996
DGENRE=New Age
TTITLE0=Spiritual Conflict
TTITLE1=Consolation
TTITLE2=Cheer up tannheuser
TTITLE3=Energizer No 2
EXTD=YEAR: 1996
EXTT0=
EXTT1=
EXTT2=
EXTT3=
PLAYORDER=
